# xmcd
#
# Track frame offsets: 
#        150
#        15137
#        42531
#        56725
#        62136
#        78995
#        102432
#        126881
#        158943
#        175480
#        183730
#        216880
#        249542
#        294070
#
# Disc length: 4224 seconds
#
# Revision: 0
# Processed by: cddbd v1.5.1PL0 Copyright (c) Steve Scherf et al.
# Submitted via: ExactAudioCopy v0.95a5
#
DISCID=c6107e0e
DTITLE=Blues Traveler - 2000-11-11 Northern Lights, Clifton Park, NY
DYEAR=2000
DGENRE=Blues
TTITLE0=Dropping Some NYC>
TTITLE1=Ivory Tusk>
TTITLE2=Optimistic Thought>
TTITLE3=Dropping Some NYC>
TTITLE4=Crash Burn
TTITLE5=Believe Me>
TTITLE6=Gina>
TTITLE7=NY Prophesie> 
TTITLE8=Manhattan Bridge>
TTITLE9=Gina> 
TTITLE10=The Path> 
TTITLE11=Felicia 
TTITLE12=Rage 
TTITLE13=Love and Greed
EXTD=
EXTT0=
EXTT1=
EXTT2=
EXTT3=
EXTT4=
EXTT5=
EXTT6=
EXTT7=
EXTT8=
EXTT9=
EXTT10=
EXTT11=
EXTT12=
EXTT13=
PLAYORDER=
